<svg xmlns="http://www.w3.org/2000/svg" viewBox="0 0 485.64 252.78"><defs><style>.cls-1{fill:#fff;}</style></defs><title>welcomeText</title><g id="Layer_2" data-name="Layer 2"><g id="Layer_1-2" data-name="Layer 1"><path class="cls-1" d="M58.15,152.69v10a5.86,5.86,0,0,1,0,.75c-.21,1.61-1.17,2.33-3,2.33H15.26c-2.14,0-3.09-.94-3.09-3.08V107.14c0-2.15.95-3.09,3.09-3.09H55.07c2.14,0,3.08.94,3.08,3.09v10a5.86,5.86,0,0,1,0,.75c-.21,1.62-1.17,2.34-3,2.34H31.39v6.61H48.12c2.14,0,3.09.94,3.09,3.09v9.18c0,.13,0,.26,0,.39-.11,1.86-1.07,2.69-3.08,2.69H31.39v7.38H55.07C57.21,149.6,58.15,150.54,58.15,152.69Zm-7.72,5.4v-.85h-28V135h21.1v-.86H22.38V112.63H50.43v-.86H21.52v46.32Z" transform="translate(-0.25 -0.25)"/><path class="cls-1" d="M129.61,107.14v55.59a5.86,5.86,0,0,1,0,.75c-.21,1.61-1.17,2.33-3,2.33H113.66c-2.15,0-3.09-.94-3.09-3.08V152.17L95.9,134.42v28.31a5.09,5.09,0,0,1-.1,1.08c-.3,1.38-1.24,2-3,2H80c-2.15,0-3.09-.94-3.09-3.08V107.14c0-2.15.94-3.09,3.09-3.09h8.92a5.83,5.83,0,0,1,5.06,2.32l6,6.82,10.68,12.22V107.14c0-2.15.94-3.09,3.09-3.09h12.87C128.67,104.05,129.61,105,129.61,107.14Zm-9,51V111.77h-.86V148L88.18,112.46c-.6-.6-.77-.78-1.29-.78a1,1,0,0,0-1,1v45.38h.86V112.88c0-.08,0-.25.17-.25s.26.08.43.25l32.43,36.38v8.83Z" transform="translate(-0.25 -0.25)"/><path class="cls-1" d="M200.3,136.22v26.51a5.09,5.09,0,0,1-.1,1.08c-.29,1.38-1.24,2-3,2h-27c-14.41,0-21.1-5.57-21.1-17.5V121.55c0-11.93,6.69-17.5,21.1-17.5h21.45c2.14,0,3.09.94,3.09,3.09v10.38a5.09,5.09,0,0,1-.1,1.08c-.3,1.38-1.25,2-3,2H173.8c-3.61,0-5.24,1.37-5.24,4.28V145.4c0,2.91,1.29,4.2,3.95,4.2h8.32V136.22c0-2.15.94-3.09,3.09-3.09h13.3C199.36,133.13,200.3,134.07,200.3,136.22ZM191,158.09V140.85h-.85v16.39H173.88c-11.58,0-14.58-2.75-14.58-10.21V123c0-7.64,2.74-10.38,12.87-10.38H187v-.86H172.17c-11,0-13.73,3.09-13.73,11.24v24c0,8,2.83,11.06,15.44,11.06Z" transform="translate(-0.25 -0.25)"/><path class="cls-1" d="M269.19,135.7v27a5.86,5.86,0,0,1,0,.75c-.21,1.61-1.17,2.33-3,2.33H222.44c-2.15,0-3.09-.94-3.09-3.08V107.14c0-1.75.62-2.69,2-3a5.19,5.19,0,0,1,1.09-.1h13.29c2.15,0,3.09.94,3.09,3.09V149.6h11.76V135.7c0-2.14.94-3.09,3.08-3.09H266.1C268.25,132.61,269.19,133.56,269.19,135.7Zm-8.92,22.39V140.34h-.86v16.9H229.56V111.77h-.86v46.32Z" transform="translate(-0.25 -0.25)"/><path class="cls-1" d="M329.67,139.82v2.66H296.22v-2.66a22.46,22.46,0,0,1,1.37-8l5.49-14.07c1.11-2.91,2.06-5.14,5.49-5.14H317c3.18,0,4.12,2.23,5.41,5.23l5.92,14A22.46,22.46,0,0,1,329.67,139.82Zm-10.29-4.72-4-13c-.43-1-1-1.45-1.63-1.45h-2.15c-.69,0-1.2.42-1.63,1.45l-4,13Z" transform="translate(-0.25 -0.25)"/><path class="cls-1" d="M339.62,140.08v22.65c0,2.14-.94,3.08-3.09,3.08H323.58c-2.32,0-3.35-.94-3.35-3.08v-12H305.05v12a5.86,5.86,0,0,1,0,.75c-.21,1.61-1.17,2.33-3.05,2.33H289.35c-2.14,0-3.09-.94-3.09-3.08V140.08c0-3.43,1-7.72,3.35-13.73l7.46-19.47c.69-2,2.06-2.83,4.38-2.83h23.07c2.23,0,3.61.86,4.29,2.83l7.47,19.47.42,1.1C338.71,132.89,339.62,136.86,339.62,140.08Zm-9.09,18V139.82a23,23,0,0,0-1.46-8.32l-5.92-14c-1.37-3.35-2.4-5.75-6.18-5.75h-8.4c-3.95,0-5,2.49-6.26,5.66l-5.49,14.07a22.74,22.74,0,0,0-1.46,8.32v18.27h.86V143.34h33.45v14.75Z" transform="translate(-0.25 -0.25)"/><path class="cls-1" d="M411.51,107.14v55.59a5.86,5.86,0,0,1,0,.75c-.21,1.61-1.17,2.33-3.05,2.33H395.56c-2.15,0-3.09-.94-3.09-3.08V152.17L377.8,134.42v28.31a5.09,5.09,0,0,1-.1,1.08c-.3,1.38-1.25,2-3,2H361.84c-2.14,0-3.09-.94-3.09-3.08V107.14c0-2.15.95-3.09,3.09-3.09h8.92a5.82,5.82,0,0,1,5.06,2.32l6,6.82,10.68,12.22V107.14c0-2.15.94-3.09,3.09-3.09h12.86C410.57,104.05,411.51,105,411.51,107.14Zm-9,51V111.77h-.85V148l-31.57-35.51c-.6-.6-.77-.78-1.29-.78a1,1,0,0,0-1,1v45.38h.86V112.88c0-.08,0-.25.17-.25s.26.08.43.25l32.43,36.38v8.83Z" transform="translate(-0.25 -0.25)"/><path d="M485.89,121.55v26.76c0,6.27-1.8,10.81-5.41,13.9l-11.15,9.27c-3.51,3-9,4.54-16.47,4.54H424c-2.74,0-3.94-1.2-3.94-3.94V116.49a3.87,3.87,0,0,1,1.2-3.18L432.27,104a4.23,4.23,0,0,1,2.75-.77h28.91C479,103.19,485.89,109.11,485.89,121.55ZM485,148.31V121.55c0-11.93-6.69-17.5-21.1-17.5H435c-2.15,0-3.09.94-3.09,3.09v55.59c0,2.14.94,3.08,3.09,3.08h28.91C478.34,165.81,485,160.24,485,148.31Z" transform="translate(-0.25 -0.25)"/><path class="cls-1" d="M485,121.55v26.76c0,11.93-6.69,17.5-21.1,17.5H435c-2.15,0-3.09-.94-3.09-3.08V107.14c0-2.15.94-3.09,3.09-3.09h28.91C478.34,104.05,485,109.62,485,121.55Zm-9.26,24.88V123.69c0-6.6-2.06-11.92-13.73-11.92H441.28v46.32H462C473.88,158.09,475.77,153,475.77,146.43Z" transform="translate(-0.25 -0.25)"/><path d="M484.26,4.19V59.78a5.36,5.36,0,0,1-.13,1.26l-.83-.18a5.09,5.09,0,0,0,.1-1.08V4.19c0-2.14-.94-3.09-3.09-3.09H467.44c-2.14,0-3.09.95-3.09,3.09V22.46l-16.64-19a6,6,0,0,0-2.87-2l.22-.82a7,7,0,0,1,3.34,2.26l5.92,6.86L464.7,1a4.15,4.15,0,0,1,2.74-.77h12.87C483.06.25,484.26,1.45,484.26,4.19Z" transform="translate(-0.25 -0.25)"/><path d="M483.3,60.86l.83.18A3.31,3.31,0,0,1,483.06,63L471.9,72.22a3.79,3.79,0,0,1-2.66.86H456.38c-2.75,0-3.95-1.2-3.95-4V58.92l-1.89-2.31v3.17a5.36,5.36,0,0,1-.13,1.26l-.82-.18a5.09,5.09,0,0,0,.1-1.08V31.47l14.66,17.76V59.78c0,2.14.95,3.09,3.09,3.09h12.87C482.06,62.87,483,62.24,483.3,60.86Z" transform="translate(-0.25 -0.25)"/><path class="cls-1" d="M483.4,4.19V59.78a5.09,5.09,0,0,1-.1,1.08c-.3,1.38-1.24,2-3,2H467.44c-2.14,0-3.09-.95-3.09-3.09V49.23L449.69,31.47V59.78a5.09,5.09,0,0,1-.1,1.08c-.3,1.38-1.25,2-3,2H433.73c-2.14,0-3.09-.95-3.09-3.09V4.19c0-2.14.95-3.09,3.09-3.09h8.92a7.32,7.32,0,0,1,2.19.28,6,6,0,0,1,2.87,2l16.64,19V4.19c0-2.14.95-3.09,3.09-3.09h12.87C482.46,1.1,483.4,2.05,483.4,4.19Zm-9,51V8.82h-.86V45L442,9.51c-.61-.6-.78-.77-1.29-.77a1,1,0,0,0-1,1V55.15h.86V9.94c0-.09,0-.26.17-.26s.26.09.43.26l32.42,36.37v8.84Z" transform="translate(-0.25 -0.25)"/><path d="M475.77,123.69v22.74c0,6.6-1.89,11.66-13.73,11.66H441.28V111.77H462C473.71,111.77,475.77,117.09,475.77,123.69Zm-.86,22.74V123.69c0-6.26-2.06-11.06-12.87-11.06h-19.9v44.61H462C473,157.24,474.91,152.69,474.91,146.43Z" transform="translate(-0.25 -0.25)"/><path class="cls-1" d="M474.91,123.69v22.74c0,6.26-1.89,10.81-12.87,10.81h-19.9V112.63H462C472.85,112.63,474.91,117.43,474.91,123.69Zm-9.27,21.71V124.55c0-2.83-1.28-4.12-4-4.12H451.4V149.6h10.21C464.36,149.6,465.64,148.31,465.64,145.4Z" transform="translate(-0.25 -0.25)"/><path d="M474.39,8.82V55.15h-.86V46.31L441.11,9.94c-.17-.17-.26-.26-.43-.26s-.17.17-.17.26V55.15h-.86V9.77a1,1,0,0,1,1-1c.51,0,.68.17,1.29.77L473.53,45V8.82Z" transform="translate(-0.25 -0.25)"/><path d="M465.64,124.55V145.4c0,2.91-1.28,4.2-4,4.2H451.4V120.43h10.21C464.36,120.43,465.64,121.72,465.64,124.55Zm-11.92,24.19V133.9c0-1.54-.43-2.57-1.46-3v17.84Z" transform="translate(-0.25 -0.25)"/><path d="M462.33,244.21v8h-.6v-8c0-4-2.1-5.88-6.66-5.88h-17v13.92h-.6v-32.4h13.68c4.68,0,6.84,2.88,6.84,6.84v4.14c0,3.66-.72,6.06-3.6,7h.66C460,237.79,462.33,240,462.33,244.21Zm-4.92-13.32v-4.2c0-3.72-2-6.24-6.24-6.24H438.09v17.34h13.08C456.15,237.79,457.41,235.33,457.41,230.89Z" transform="translate(-0.25 -0.25)"/><path d="M449.59,60.86l.82.18A3.31,3.31,0,0,1,449.34,63l-11.15,9.27a3.8,3.8,0,0,1-2.66.86H422.66c-2.74,0-3.94-1.2-3.94-4V13.54a3.88,3.88,0,0,1,1.2-3.17L431,1a4.19,4.19,0,0,1,2.75-.77h8.92a8.05,8.05,0,0,1,2.41.31l-.22.82a7.32,7.32,0,0,0-2.19-.28h-8.92c-2.14,0-3.09.95-3.09,3.09V59.78c0,2.14.95,3.09,3.09,3.09H446.6C448.34,62.87,449.29,62.24,449.59,60.86Z" transform="translate(-0.25 -0.25)"/><polygon points="424.28 251.4 424.28 252 404.06 252 404.06 219.6 424.28 219.6 424.28 220.2 404.66 220.2 404.66 235.26 419.42 235.26 419.42 235.86 404.66 235.86 404.66 251.4 424.28 251.4"/><path d="M412.8,49.74v10a5.36,5.36,0,0,1-.13,1.26l-.83-.18a5.09,5.09,0,0,0,.1-1.08v-10c0-2.14-.95-3.08-3.09-3.08H385.17V39.28H401.9c1.88,0,2.84-.73,3.05-2.34l.84.1a3.4,3.4,0,0,1-1.14,2.32L397,45.8h11.84C411.6,45.8,412.8,47,412.8,49.74Z" transform="translate(-0.25 -0.25)"/><path d="M412.8,4.19v10a5.36,5.36,0,0,1-.13,1.26l-.83-.18a5.09,5.09,0,0,0,.1-1.08v-10c0-2.14-.95-3.09-3.09-3.09h-39.8c-2.15,0-3.09.95-3.09,3.09V59.78c0,2.14.94,3.09,3.09,3.09h39.8c1.74,0,2.69-.63,3-2l.83.18A3.31,3.31,0,0,1,411.6,63l-11.16,9.27a3.8,3.8,0,0,1-2.66.86H358c-2.75,0-4-1.2-4-4V13.54a3.88,3.88,0,0,1,1.2-3.17L366.3,1a4.18,4.18,0,0,1,2.75-.77h39.8C411.6.25,412.8,1.45,412.8,4.19Z" transform="translate(-0.25 -0.25)"/><path d="M411.84,15.31l.83.18a3.31,3.31,0,0,1-1.07,1.91l-7.38,6.09c1.11.6,1.63,1.72,1.63,3.52v9.18a5.57,5.57,0,0,1-.06.85l-.84-.1a5.86,5.86,0,0,0,0-.75V27c0-2.14-.94-3.09-3.09-3.09H385.17v-6.6h23.68C410.59,17.32,411.54,16.69,411.84,15.31Z" transform="translate(-0.25 -0.25)"/><path d="M412.37,107.14v55.59a5.57,5.57,0,0,1-.06.85l-.84-.1a5.86,5.86,0,0,0,0-.75V107.14c0-2.15-.94-3.09-3.09-3.09H395.56c-2.15,0-3.09.94-3.09,3.09v18.27l-10.68-12.22.64-.56L392.81,104a4.22,4.22,0,0,1,2.75-.77h12.86C411.17,103.19,412.37,104.39,412.37,107.14Z" transform="translate(-0.25 -0.25)"/><path d="M411.47,163.48l.84.1a3.46,3.46,0,0,1-1.14,2.32L400,175.16a3.77,3.77,0,0,1-2.66.86H384.49c-2.75,0-3.95-1.2-3.95-3.94V161.87l-1.88-2.32v3.18a5.36,5.36,0,0,1-.13,1.26l-.83-.18a5.09,5.09,0,0,0,.1-1.08V134.42l14.67,17.75v10.56c0,2.14.94,3.08,3.09,3.08h12.86C410.3,165.81,411.26,165.09,411.47,163.48Z" transform="translate(-0.25 -0.25)"/><path class="cls-1" d="M411.94,49.74v10a5.09,5.09,0,0,1-.1,1.08c-.3,1.38-1.25,2-3,2h-39.8c-2.15,0-3.09-.95-3.09-3.09V4.19c0-2.14.94-3.09,3.09-3.09h39.8c2.14,0,3.09.95,3.09,3.09v10a5.09,5.09,0,0,1-.1,1.08c-.3,1.38-1.25,2-3,2H385.17v6.6H401.9c2.15,0,3.09.95,3.09,3.09v9.18a5.86,5.86,0,0,1,0,.75c-.21,1.61-1.17,2.34-3.05,2.34H385.17v7.38h23.68C411,46.66,411.94,47.6,411.94,49.74Zm-7.72,5.41v-.86H376.17V32.07h21.1v-.86h-21.1V9.68h28.05V8.82H375.31V55.15Z" transform="translate(-0.25 -0.25)"/><polygon points="403.97 54.04 403.97 54.9 375.06 54.9 375.06 8.57 403.97 8.57 403.97 9.43 375.92 9.43 375.92 30.96 397.02 30.96 397.02 31.82 375.92 31.82 375.92 54.04 403.97 54.04"/><path d="M402.5,111.77v46.32h-.85v-8.83l-32.43-36.38c-.17-.17-.26-.25-.43-.25s-.17.17-.17.25v45.21h-.86V112.71a1,1,0,0,1,1-1c.52,0,.69.18,1.29.78L401.65,148v-36.2Z" transform="translate(-0.25 -0.25)"/><path d="M391.53,228v4.44c0,4.68-1.44,8-9,8H370.17v11.82h-.6v-32.4h13C390.09,219.85,391.53,223.33,391.53,228Zm-.6,4.44V228c0-4.32-1.32-7.56-8.4-7.56H370.17v19.38h12.36C389.61,239.83,390.93,236.77,390.93,232.45Z" transform="translate(-0.25 -0.25)"/><path d="M376.51,105.76l5.92,6.87-.64.56-6-6.82a5.82,5.82,0,0,0-5.06-2.32h-8.92c-2.14,0-3.09.94-3.09,3.09v55.59c0,2.14.95,3.08,3.09,3.08h12.87c1.74,0,2.69-.62,3-2l.83.18a3.3,3.3,0,0,1-1.08,1.91l-11.15,9.26a3.76,3.76,0,0,1-2.66.86H350.78c-2.75,0-3.95-1.2-3.95-3.94V116.49a3.91,3.91,0,0,1,1.2-3.18L359.1,104a4.2,4.2,0,0,1,2.74-.77h8.92A6.88,6.88,0,0,1,376.51,105.76Z" transform="translate(-0.25 -0.25)"/><path d="M354.69,227.23v17.7c0,4.86-2.76,8.1-12.18,8.1s-12.06-3.24-12.06-8.1v-17.7c0-4.86,2.64-8.1,12.06-8.1S354.69,222.37,354.69,227.23Zm-.6,17.7v-17.7c0-4.5-2.64-7.5-11.58-7.5s-11.46,3-11.46,7.5v17.7c0,4.5,2.52,7.5,11.46,7.5S354.09,249.43,354.09,244.93Z" transform="translate(-0.25 -0.25)"/><path d="M347.34,18.6V45.37c0,6.26-1.8,10.81-5.4,13.9l-11.15,9.26c-3.52,3-9,4.55-16.48,4.55h-28.9c-2.75,0-4-1.2-4-4V13.54a3.88,3.88,0,0,1,1.2-3.17L293.73,1a4.15,4.15,0,0,1,2.74-.77h28.91C340.48.25,347.34,6.16,347.34,18.6Zm-.86,26.77V18.6c0-11.92-6.69-17.5-21.1-17.5H296.47c-2.14,0-3.09.95-3.09,3.09V59.78c0,2.14.95,3.09,3.09,3.09h28.91C339.79,62.87,346.48,57.29,346.48,45.37Z" transform="translate(-0.25 -0.25)"/><path class="cls-1" d="M346.48,18.6V45.37c0,11.92-6.69,17.5-21.1,17.5H296.47c-2.14,0-3.09-.95-3.09-3.09V4.19c0-2.14.95-3.09,3.09-3.09h28.91C339.79,1.1,346.48,6.68,346.48,18.6Zm-9.26,24.88V20.75c0-6.61-2.06-11.93-13.73-11.93H302.73V55.15h20.76C335.33,55.15,337.22,50.09,337.22,43.48Z" transform="translate(-0.25 -0.25)"/><path d="M340.48,140.08v22.65a3.9,3.9,0,0,1-1.2,3.17l-11.15,9.26a3.77,3.77,0,0,1-2.66.86h-13c-2.92,0-4.21-1.28-4.21-3.94V160.92h-2.4v1.81a5.57,5.57,0,0,1-.06.85l-.84-.1a5.86,5.86,0,0,0,0-.75v-12h15.18v12c0,2.14,1,3.08,3.35,3.08h12.95c2.15,0,3.09-.94,3.09-3.08V140.08c0-3.22-.91-7.19-2.92-12.63l.78-.3C339.57,132.73,340.48,136.78,340.48,140.08Z" transform="translate(-0.25 -0.25)"/><path d="M337.05,126l.43,1.14-.78.3-.42-1.1-7.47-19.47c-.68-2-2.06-2.83-4.29-2.83H301.45c-2.32,0-3.69.86-4.38,2.83l-7.46,19.47c-2.32,6-3.35,10.3-3.35,13.73v22.65c0,2.14.95,3.08,3.09,3.08H302c1.88,0,2.84-.72,3.05-2.33l.84.1a3.46,3.46,0,0,1-1.14,2.32l-11.15,9.26a3.77,3.77,0,0,1-2.66.86H278.29c-2.75,0-4-1.2-4-3.94V149.43c0-3.52,1-7.89,3.43-14.07L285.15,116a5.6,5.6,0,0,1,1.46-2.31l.08-.09,11-9.18a5.28,5.28,0,0,1,3.78-1.2h23.07c2.66,0,4.29,1,5.07,3.35Z" transform="translate(-0.25 -0.25)"/><path d="M337.22,20.75V43.48c0,6.61-1.89,11.67-13.73,11.67H302.73V8.82h20.76C335.16,8.82,337.22,14.14,337.22,20.75Zm-.86,22.73V20.75c0-6.26-2.06-11.07-12.87-11.07h-19.9V54.29h19.9C334.47,54.29,336.36,49.74,336.36,43.48Z" transform="translate(-0.25 -0.25)"/><path class="cls-1" d="M336.36,20.75V43.48c0,6.26-1.89,10.81-12.87,10.81h-19.9V9.68h19.9C334.3,9.68,336.36,14.49,336.36,20.75Zm-9.26,21.7V21.61c0-2.83-1.29-4.12-4-4.12h-10.2V46.66h10.2C325.81,46.66,327.1,45.37,327.1,42.45Z" transform="translate(-0.25 -0.25)"/><path d="M330.53,139.82v18.27h-.86V143.34H296.22v14.75h-.86V139.82a22.74,22.74,0,0,1,1.46-8.32l5.49-14.07c1.28-3.17,2.31-5.66,6.26-5.66H317c3.78,0,4.81,2.4,6.18,5.75l5.92,14A23,23,0,0,1,330.53,139.82Zm-.86,2.66v-2.66a22.46,22.46,0,0,0-1.37-8l-5.92-14c-1.29-3-2.23-5.23-5.41-5.23h-8.4c-3.43,0-4.38,2.23-5.49,5.14l-5.49,14.07a22.46,22.46,0,0,0-1.37,8v2.66Z" transform="translate(-0.25 -0.25)"/><path d="M327.1,21.61V42.45c0,2.92-1.29,4.21-4,4.21h-10.2V17.49h10.2C325.81,17.49,327.1,18.78,327.1,21.61ZM315.17,45.8V31c0-1.55-.43-2.58-1.46-3V45.8Z" transform="translate(-0.25 -0.25)"/><path d="M315.35,122.06l4,13H305.91l4-13c.43-1,.94-1.45,1.63-1.45h2.15C314.4,120.61,314.92,121,315.35,122.06Z" transform="translate(-0.25 -0.25)"/><polygon points="317.3 239.58 317.3 252 295.22 252 295.22 219.6 295.82 219.6 295.82 251.4 316.7 251.4 316.7 239.58 317.3 239.58"/><polygon points="282.2 251.4 282.2 252 261.98 252 261.98 219.6 282.2 219.6 282.2 220.2 262.58 220.2 262.58 235.26 277.34 235.26 277.34 235.86 262.58 235.86 262.58 251.4 282.2 251.4"/><path d="M275.88,4.19V20.66c0,5.58-.69,7.38-3.43,11.07L259.58,49.14l-.68-.5,12.86-17.43C274.34,27.7,275,26,275,20.66V4.19c0-2.14-.94-3.09-3.09-3.09H259.15c-2.14,0-3.09.95-3.09,3.09V18.26a6.13,6.13,0,0,1-.77,3.6L251.35,28c-.6,1-1.12,1.46-2.06,1.46h-.86c-.94,0-1.46-.43-2.06-1.46l-3.94-6.18.68-.43,1,1.46V13.54a3.88,3.88,0,0,1,1.2-3.17L256.41,1a4.15,4.15,0,0,1,2.74-.77h12.78C274.68.25,275.88,1.45,275.88,4.19Z" transform="translate(-0.25 -0.25)"/><path class="cls-1" d="M275,4.19V20.66c0,5.32-.68,7-3.26,10.55L258.9,48.64l-.18.25V59.78c0,2.14-.94,3.09-3.08,3.09h-13.9c-2.23,0-3.09-.95-3.09-3.09v-11L225.53,31.21c-2.66-3.51-3.26-5.23-3.26-10.55V4.19c0-2.14.94-3.09,3.08-3.09h13.21c2.15,0,3.09.95,3.09,3.09V18.26a6.07,6.07,0,0,0,.78,3.6L246.37,28c.6,1,1.12,1.46,2.06,1.46h.86c.94,0,1.46-.43,2.06-1.46l3.94-6.18a6.13,6.13,0,0,0,.77-3.6V4.19c0-2.14.95-3.09,3.09-3.09h12.78C274.08,1.1,275,2.05,275,4.19Zm-10.38,21.1c1.38-1.8,1.29-4.11,1.29-6.6V8.82h-.86v9.87c0,2.4,0,4.72-1.2,6.26l-8.58,11.58c-1.71,2.23-3.43,3.09-5.57,3.09H247.4a6.3,6.3,0,0,1-5.49-3.09L233.59,25c-1.12-1.71-1.2-3.86-1.2-6.26V8.82h-.86v9.87c0,2.49,0,4.89,1.29,6.6l8.32,11.59c1.89,2.57,3.77,3.6,6.26,3.6h.86V55.15h.86V40.48h.6c2.66,0,4.46-1.12,6.34-3.6Z" transform="translate(-0.25 -0.25)"/><path d="M270.05,135.7v27a5.57,5.57,0,0,1-.06.85l-.84-.1a5.86,5.86,0,0,0,0-.75v-27c0-2.14-.94-3.09-3.09-3.09H253.66c-2.14,0-3.08.95-3.08,3.09v13.9H238.82V107.14c0-2.15-.94-3.09-3.09-3.09H222.44a5.19,5.19,0,0,0-1.09.1l-.13-.85a6.59,6.59,0,0,1,1.22-.11h13.29c2.75,0,4,1.2,4,4v34.91l.17-.17,11.07-9.35a4.2,4.2,0,0,1,2.74-.77H266.1C268.85,131.76,270.05,133,270.05,135.7Z" transform="translate(-0.25 -0.25)"/><path d="M269.15,163.48l.84.1a3.46,3.46,0,0,1-1.14,2.32l-11.15,9.26A3.77,3.77,0,0,1,255,176H211.37c-2.74,0-3.94-1.2-3.94-3.94V116.49a3.87,3.87,0,0,1,1.2-3.18L219.69,104a3.31,3.31,0,0,1,1.53-.66l.13.85c-1.38.3-2,1.24-2,3v55.59c0,2.14.94,3.08,3.09,3.08H266.1C268,165.81,268.94,165.09,269.15,163.48Z" transform="translate(-0.25 -0.25)"/><path d="M265.93,18.69c0,2.49.09,4.8-1.29,6.6l-8.58,11.59c-1.88,2.48-3.68,3.6-6.34,3.6h-.6V55.15h-.86V40.48h-.86c-2.49,0-4.37-1-6.26-3.6l-8.32-11.59c-1.29-1.71-1.29-4.11-1.29-6.6V8.82h.86v9.87c0,2.4.08,4.55,1.2,6.26l8.32,11.58a6.3,6.3,0,0,0,5.49,3.09h2.32c2.14,0,3.86-.86,5.57-3.09L263.87,25c1.2-1.54,1.2-3.86,1.2-6.26V8.82h.86Z" transform="translate(-0.25 -0.25)"/><polygon points="260.02 140.09 260.02 157.84 228.45 157.84 228.45 111.52 229.31 111.52 229.31 156.99 259.16 156.99 259.16 140.09 260.02 140.09"/><path d="M259.58,49.14V59.78a3.88,3.88,0,0,1-1.2,3.17l-11.15,9.27a3.82,3.82,0,0,1-2.66.86h-13.9c-2.83,0-3.94-1.2-3.94-4V58.41l-13-17.33c-2.74-3.69-3.43-5.49-3.43-11.07V13.54a3.88,3.88,0,0,1,1.2-3.17L222.61,1a4.15,4.15,0,0,1,2.74-.77h13.21c2.75,0,3.95,1.2,3.95,3.94V18.26a6.13,6.13,0,0,0,.6,3.17l-.68.43a6.07,6.07,0,0,1-.78-3.6V4.19c0-2.14-.94-3.09-3.09-3.09H225.35c-2.14,0-3.08.95-3.08,3.09V20.66c0,5.32.6,7,3.26,10.55L238.65,48.8v11c0,2.14.86,3.09,3.09,3.09h13.9c2.14,0,3.08-.95,3.08-3.09V48.89l.18-.25Z" transform="translate(-0.25 -0.25)"/><path d="M247.65,219.85v13a14.83,14.83,0,0,1-1,5.82l-4,9.6c-1,2.34-1.86,4-4.38,4h-5.28c-2.51,0-3.42-1.68-4.38-4l-4-9.6a15,15,0,0,1-1-5.82v-13h.6v13a14.9,14.9,0,0,0,1,5.58l4,9.6c.84,2.1,1.5,3.66,3.78,3.66h5.28c2.28,0,2.94-1.56,3.78-3.66l4-9.6a14.71,14.71,0,0,0,1-5.58v-13Z" transform="translate(-0.25 -0.25)"/><polygon points="211.16 251.4 211.16 252 190.95 252 190.95 219.6 211.16 219.6 211.16 220.2 191.55 220.2 191.55 235.26 206.31 235.26 206.31 235.86 191.55 235.86 191.55 251.4 211.16 251.4"/><path d="M208.2,37.13V59.78A3.86,3.86,0,0,1,207,63l-11.15,9.27a3.8,3.8,0,0,1-2.66.86h-13c-2.92,0-4.2-1.29-4.2-4V58h-2.41v1.8a5.36,5.36,0,0,1-.13,1.26l-.82-.18a5.09,5.09,0,0,0,.1-1.08v-12H188v12c0,2.14,1,3.09,3.35,3.09h12.95c2.14,0,3.09-.95,3.09-3.09V37.13c0-3.43-1-7.72-3.35-13.72L196.53,3.93s0,0,0,0l.78-.31,7.46,19.47C207.17,29.24,208.2,33.62,208.2,37.13Z" transform="translate(-0.25 -0.25)"/><path class="cls-1" d="M207.34,37.13V59.78c0,2.14-1,3.09-3.09,3.09H191.3c-2.32,0-3.35-.95-3.35-3.09v-12H172.77v12a5.09,5.09,0,0,1-.1,1.08c-.3,1.38-1.25,2-3,2H157.07c-2.15,0-3.09-.95-3.09-3.09V37.13c0-3.43,1-7.72,3.34-13.72l7.47-19.48c.68-2,2.06-2.83,4.37-2.83h23.08c2.22,0,3.59.85,4.28,2.8,0,0,0,0,0,0L204,23.41C206.31,29.41,207.34,33.7,207.34,37.13Zm-9.1,18V36.88a23,23,0,0,0-1.45-8.33l-5.92-14c-1.38-3.34-2.4-5.75-6.18-5.75h-8.41c-3.94,0-5,2.49-6.26,5.67l-5.49,14.06a23,23,0,0,0-1.46,8.33V55.15h.86V40.39h33.46V55.15Z" transform="translate(-0.25 -0.25)"/><path d="M201.16,136.22v26.51A5.36,5.36,0,0,1,201,164l-.83-.18a5.09,5.09,0,0,0,.1-1.08V136.22c0-2.15-.94-3.09-3.08-3.09h-13.3c-2.15,0-3.09.94-3.09,3.09V149.6h-8.32c-2.66,0-3.95-1.29-3.95-4.2V130.81h.86v12.36a5.37,5.37,0,0,1,.69-.78L181.17,133a4.23,4.23,0,0,1,2.75-.77h13.3C200,132.27,201.16,133.47,201.16,136.22Z" transform="translate(-0.25 -0.25)"/><path d="M200.2,163.81l.83.18A3.35,3.35,0,0,1,200,165.9l-11.15,9.26a3.77,3.77,0,0,1-2.66.86h-27c-15.1,0-22-8.49-22-20.93V130.9c0-6.35,1.8-10.81,5.4-13.9l11.07-9.35c3.6-3,9.09-4.46,16.55-4.46h21.45c2.74,0,4,1.2,4,4v10.38a5.36,5.36,0,0,1-.13,1.26l-.83-.18a5.09,5.09,0,0,0,.1-1.08V107.14c0-2.15-.95-3.09-3.09-3.09H170.19c-14.41,0-21.1,5.57-21.1,17.5v26.76c0,11.93,6.69,17.5,21.1,17.5h27C199,165.81,199.91,165.19,200.2,163.81Z" transform="translate(-0.25 -0.25)"/><path d="M198.24,36.88V55.15h-.85V40.39H163.93V55.15h-.86V36.88a23,23,0,0,1,1.46-8.33L170,14.49c1.29-3.18,2.32-5.67,6.26-5.67h8.41c3.78,0,4.8,2.41,6.18,5.75l5.92,14A23,23,0,0,1,198.24,36.88Zm-.85,2.66V36.88a22.41,22.41,0,0,0-1.38-8l-5.91-14c-1.29-3-2.24-5.23-5.41-5.23h-8.41c-3.43,0-4.37,2.23-5.49,5.15L165.3,28.9a22.42,22.42,0,0,0-1.37,8v2.66Z" transform="translate(-0.25 -0.25)"/><path class="cls-1" d="M197.39,36.88v2.66H163.93V36.88a22.42,22.42,0,0,1,1.37-8l5.49-14.07c1.12-2.92,2.06-5.15,5.49-5.15h8.41c3.17,0,4.12,2.23,5.41,5.23l5.91,14A22.41,22.41,0,0,1,197.39,36.88Zm-10.3-4.72-4-13c-.43-1-.94-1.46-1.63-1.46h-2.14c-.69,0-1.21.43-1.63,1.46l-4,13Z" transform="translate(-0.25 -0.25)"/><path d="M197.3,3.59l-.78.31c-.69-1.95-2.06-2.8-4.28-2.8H169.16c-2.31,0-3.69.86-4.37,2.83l-7.47,19.48C155,29.41,154,33.7,154,37.13V59.78c0,2.14.94,3.09,3.09,3.09h12.61c1.74,0,2.69-.63,3-2l.82.18A3.31,3.31,0,0,1,172.42,63l-11.15,9.27a3.8,3.8,0,0,1-2.66.86H146c-2.74,0-3.94-1.2-3.94-4V46.48c0-3.51,1-7.89,3.43-14.07L152.86,13a5.75,5.75,0,0,1,1.46-2.32l.09-.08,11-9.18a5.24,5.24,0,0,1,3.77-1.2h23.08C194.9.25,196.53,1.27,197.3,3.59Z" transform="translate(-0.25 -0.25)"/><path d="M194.63,118.6l.83.18a3.3,3.3,0,0,1-1.08,1.91L183.23,130a3.8,3.8,0,0,1-2.66.85h-12v-5.92c0-2.91,1.63-4.28,5.24-4.28h17.84C193.38,120.61,194.33,120,194.63,118.6Z" transform="translate(-0.25 -0.25)"/><path d="M191,140.85v17.24H173.88c-12.61,0-15.44-3.08-15.44-11.06V123c0-8.15,2.75-11.24,13.73-11.24H187v.86H172.17c-10.13,0-12.87,2.74-12.87,10.38v24c0,7.46,3,10.21,14.58,10.21H190.1V140.85Z" transform="translate(-0.25 -0.25)"/><path d="M183.06,19.12l4,13H173.62l4-13c.42-1,.94-1.46,1.63-1.46h2.14C182.12,17.66,182.63,18.09,183.06,19.12Z" transform="translate(-0.25 -0.25)"/><path d="M176.56,228.19v15.9c0,4.62-1.33,8.16-9.6,8.16H152.44v-32.4H167C175.11,219.85,176.56,223.57,176.56,228.19Zm-.61,15.9v-15.9c0-4.38-1.43-7.74-9-7.74H153v31.2H167C174.64,251.65,176,248.47,176,244.09Z" transform="translate(-0.25 -0.25)"/><path d="M137.94,41.59V59.78a3.88,3.88,0,0,1-1.2,3.17l-11.16,9.27a3.8,3.8,0,0,1-2.66.86H109.63c-2.75,0-3.95-1.2-3.95-4V56c0-1.89-.6-2.84-2.4-2.84h-.09v6.61a5.36,5.36,0,0,1-.13,1.26l-.82-.18a5.09,5.09,0,0,0,.1-1.08V43h12c2.4,0,3.25,1.11,3.25,3.69V59.78c0,2.14,1,3.09,3.09,3.09H134c2.15,0,3.09-.95,3.09-3.09V41.59c0-4.5-1.61-8-4.35-10.1l.49-.65C136.17,33.11,137.94,36.79,137.94,41.59Z" transform="translate(-0.25 -0.25)"/><path class="cls-1" d="M137.08,41.59V59.78c0,2.14-.94,3.09-3.09,3.09h-13.3c-2.14,0-3.09-.95-3.09-3.09V46.66c0-2.58-.85-3.69-3.25-3.69h-12V59.78a5.09,5.09,0,0,1-.1,1.08c-.3,1.38-1.25,2-3,2H86c-2.15,0-3.09-.95-3.09-3.09V4.19C83,2.05,83.89,1.1,86,1.1H114.6c12.87,0,16.9,5.84,16.9,14.33v3.95c0,4.8-1.2,8.23-4.8,9.78a11.75,11.75,0,0,1,6,2.33C135.47,33.63,137.08,37.09,137.08,41.59Zm-9.35,13.56V43.65c0-6-3.35-9.18-10.38-9.18h-.95c4.12-1.28,5.15-4.71,5.15-9.95V18.6c0-5.66-3.09-9.78-9.78-9.78H92.21V55.15h.86V35.25h24.28c6.52,0,9.52,2.74,9.52,8.4v11.5Z" transform="translate(-0.25 -0.25)"/><path d="M133.22,30.84l-.49.65a11.75,11.75,0,0,0-6-2.33c3.6-1.55,4.8-5,4.8-9.78V15.43c0-8.49-4-14.33-16.9-14.33H86C83.89,1.1,83,2.05,83,4.19V59.78c0,2.14.94,3.09,3.09,3.09H99.25c1.74,0,2.69-.63,3-2l.82.18A3.31,3.31,0,0,1,102,63L90.84,72.22a3.8,3.8,0,0,1-2.66.86H75c-2.75,0-4-1.2-4-4V13.54a3.88,3.88,0,0,1,1.2-3.17L83.29,1A4.18,4.18,0,0,1,86,.25H114.6c13.64,0,17.76,6.26,17.76,15.18v3.95c0,4.2-.94,7.37-3.26,9.35H129A12,12,0,0,1,133.22,30.84Z" transform="translate(-0.25 -0.25)"/><path d="M131.56,242.41v3.84c0,3.54-1.14,6-7.86,6H107.56v-32.4h12.18c6.66,0,7.86,2.88,7.86,6.36v3.84c0,2.4-.42,4.56-3.84,5.46C130.42,235.51,131.56,238.45,131.56,242.41Zm-.6,3.84v-3.84c0-3.6-1.14-6.3-7.2-6.3h-15.6v15.54H123.7C129.7,251.65,131,249.55,131,246.25Zm-4-16.2v-3.84c0-3.24-1.2-5.76-7.26-5.76H108.16v15.06h11.58C126.34,235.51,127,232.93,127,230.05Z" transform="translate(-0.25 -0.25)"/><path d="M130.47,107.14v55.59a5.57,5.57,0,0,1-.06.85l-.84-.1a5.86,5.86,0,0,0,0-.75V107.14c0-2.15-.94-3.09-3.08-3.09H113.66c-2.15,0-3.09.94-3.09,3.09v18.27L99.89,113.19l.64-.56L110.91,104a4.23,4.23,0,0,1,2.75-.77h12.87C129.27,103.19,130.47,104.39,130.47,107.14Z" transform="translate(-0.25 -0.25)"/><path d="M129.57,163.48l.84.1a3.46,3.46,0,0,1-1.14,2.32l-11.15,9.26a3.77,3.77,0,0,1-2.66.86H102.59c-2.74,0-3.94-1.2-3.94-3.94V161.87l-1.89-2.32v3.18a5.36,5.36,0,0,1-.13,1.26l-.83-.18a5.09,5.09,0,0,0,.1-1.08V134.42l14.67,17.75v10.56c0,2.14.94,3.08,3.09,3.08h12.87C128.4,165.81,129.36,165.09,129.57,163.48Z" transform="translate(-0.25 -0.25)"/><path d="M127.73,43.65v11.5h-.86V43.65c0-5.66-3-8.4-9.52-8.4H93.07v19.9h-.86V8.82h19.56c6.69,0,9.78,4.12,9.78,9.78v5.92c0,5.24-1,8.67-5.15,10h.95C124.38,34.47,127.73,37.65,127.73,43.65Zm-7-19v-6c0-5.31-2.83-8.92-8.92-8.92H93.07V34.47h18.7C118.89,34.47,120.69,31,120.69,24.61Z" transform="translate(-0.25 -0.25)"/><path class="cls-1" d="M120.69,18.6v6c0,6.35-1.8,9.86-8.92,9.86H93.07V9.68h18.7C117.86,9.68,120.69,13.29,120.69,18.6Zm-8.15,4.89V20.58c0-2.32-.77-4-3.77-4h-6.43v11h6.43C111.77,27.53,112.54,25.81,112.54,23.49Z" transform="translate(-0.25 -0.25)"/><path d="M120.61,111.77v46.32h-.86v-8.83L87.32,112.88c-.17-.17-.25-.25-.43-.25s-.17.17-.17.25v45.21h-.86V112.71a1,1,0,0,1,1-1c.52,0,.69.18,1.29.78L119.75,148v-36.2Z" transform="translate(-0.25 -0.25)"/><path d="M112.54,20.58v2.91c0,2.32-.77,4-3.77,4h-6.43v-11h6.43C111.77,16.54,112.54,18.26,112.54,20.58Z" transform="translate(-0.25 -0.25)"/><path d="M94.61,105.76l5.92,6.87-.64.56-6-6.82a5.83,5.83,0,0,0-5.06-2.32H80c-2.15,0-3.09.94-3.09,3.09v55.59c0,2.14.94,3.08,3.09,3.08H92.81c1.75,0,2.69-.62,3-2l.83.18a3.35,3.35,0,0,1-1.07,1.91l-11.15,9.26a3.77,3.77,0,0,1-2.66.86H68.88c-2.75,0-3.95-1.2-3.95-3.94V116.49a3.91,3.91,0,0,1,1.2-3.18L77.2,104a4.22,4.22,0,0,1,2.75-.77h8.92A6.87,6.87,0,0,1,94.61,105.76Z" transform="translate(-0.25 -0.25)"/><polygon points="94.17 251.4 94.17 252 73.95 252 73.95 219.6 94.17 219.6 94.17 220.2 74.55 220.2 74.55 235.26 89.31 235.26 89.31 235.86 74.55 235.86 74.55 251.4 94.17 251.4"/><path d="M65.7,40.91V48.8c0,5.15-1.45,8.84-4.46,11.32L50.18,69.47c-2.83,2.41-7.12,3.61-13,3.61H4.2c-2.75,0-3.95-1.2-3.95-4V13.54a3.88,3.88,0,0,1,1.2-3.17L12.52,1A4.15,4.15,0,0,1,15.26.25H42.63c12,0,17.33,4.54,17.33,14v4.12c0,4-1.12,6.86-3.26,8.57l-.26.18C62.7,28.47,65.7,32.84,65.7,40.91Zm-.85,7.89V40.91c0-8.41-3.44-12.61-10.81-13.3,3.43-1.46,5.06-4.46,5.06-9.26V14.23c0-9-5.23-13.13-16.47-13.13H15.26c-2.14,0-3.09.95-3.09,3.09V59.78c0,2.14.95,3.09,3.09,3.09H48.2C59.61,62.87,64.85,58.41,64.85,48.8Z" transform="translate(-0.25 -0.25)"/><path class="cls-1" d="M64.85,40.91V48.8c0,9.61-5.24,14.07-16.65,14.07H15.26c-2.14,0-3.09-.95-3.09-3.09V4.19c0-2.14.95-3.09,3.09-3.09H42.63C53.87,1.1,59.1,5.22,59.1,14.23v4.12c0,4.8-1.63,7.8-5.06,9.26C61.41,28.3,64.85,32.5,64.85,40.91ZM56,46.57V41.08c0-5.66-1.63-9.87-11.15-9.87,4.89-1.28,5.49-4.37,5.49-7.8V17.92c0-5-1.72-9.1-11.24-9.1H21.7V55.15H44.77C54.38,55.15,56,51.63,56,46.57Z" transform="translate(-0.25 -0.25)"/><path d="M59.56,219.85v17.7a39,39,0,0,1-.3,6.06l-1.5,6.78c-.3,1.32-1,1.86-2,1.86h-.42a2,2,0,0,1-2-1l-4.92-11.16c-1-2.16-1.5-2.52-2.46-2.52H43.3c-1,0-1.5.36-2.46,2.52l-4.92,11.16a2,2,0,0,1-2,1h-.42c-1,0-1.68-.54-2-1.86L30,243.61a39,39,0,0,1-.3-6.06v-17.7h.6v17.64a39,39,0,0,0,.3,6.06l1.5,6.84a1.53,1.53,0,0,0,1.38,1.26h.3c.6,0,1.26,0,1.62-.84l4.92-11c1-2.28,1.68-2.82,2.94-2.82H46c1.26,0,1.92.54,2.94,2.82l4.92,11c.36.84,1,.84,1.62.84h.3a1.53,1.53,0,0,0,1.38-1.26l1.5-6.84a39,39,0,0,0,.3-6.06V219.85Z" transform="translate(-0.25 -0.25)"/><path d="M59,152.69v10a5.57,5.57,0,0,1-.06.85l-.84-.1a5.86,5.86,0,0,0,0-.75v-10c0-2.15-.94-3.09-3.08-3.09H31.39v-7.38H48.12c2,0,3-.83,3.08-2.69l.84,0a3.58,3.58,0,0,1-1.18,2.75l-7.63,6.43H55.07C57.81,148.74,59,149.94,59,152.69Z" transform="translate(-0.25 -0.25)"/><path d="M59,107.14v10A5.57,5.57,0,0,1,59,118l-.84-.1a5.86,5.86,0,0,0,0-.75v-10c0-2.15-.94-3.09-3.08-3.09H15.26c-2.14,0-3.09.94-3.09,3.09v55.59c0,2.14.95,3.08,3.09,3.08H55.07c1.87,0,2.83-.72,3-2.33l.84.1a3.46,3.46,0,0,1-1.14,2.32l-11.15,9.26A3.77,3.77,0,0,1,44,176H4.2c-2.75,0-3.95-1.2-3.95-3.94V116.49a3.91,3.91,0,0,1,1.2-3.18L12.52,104a4.2,4.2,0,0,1,2.74-.77H55.07C57.81,103.19,59,104.39,59,107.14Z" transform="translate(-0.25 -0.25)"/><path d="M58.11,117.92l.84.1a3.44,3.44,0,0,1-1.14,2.33l-7.38,6.09c1.12.6,1.63,1.71,1.63,3.52v9.18a2.82,2.82,0,0,1,0,.42l-.84,0c0-.13,0-.26,0-.39V130c0-2.15-1-3.09-3.09-3.09H31.39v-6.61H55.07C56.94,120.26,57.9,119.54,58.11,117.92Z" transform="translate(-0.25 -0.25)"/><path d="M56,41.08v5.49c0,5.06-1.63,8.58-11.24,8.58H21.7V8.82H39.11c9.52,0,11.24,4.12,11.24,9.1v5.49c0,3.43-.6,6.52-5.49,7.8C54.38,31.21,56,35.42,56,41.08Zm-.86,5.49V41.08c0-5.15-1.63-9-10.29-9H22.55V54.29H44.77C53.35,54.29,55.15,51.29,55.15,46.57ZM49.49,23.41V17.92c0-4.63-1.72-8.24-10.38-8.24H22.55V31.21H39.11C48.55,31.21,49.49,27.53,49.49,23.41Z" transform="translate(-0.25 -0.25)"/><path class="cls-1" d="M55.15,41.08v5.49c0,4.72-1.8,7.72-10.38,7.72H22.55V32.07H44.86C53.52,32.07,55.15,35.93,55.15,41.08Zm-9.26,3.77V41.51c0-2.32-1-3.35-3.26-3.35H31.47V48.29H42.63C44.86,48.29,45.89,47.17,45.89,44.85Z" transform="translate(-0.25 -0.25)"/><polygon points="50.18 156.99 50.18 157.84 21.27 157.84 21.27 111.52 50.18 111.52 50.18 112.38 22.13 112.38 22.13 133.91 43.23 133.91 43.23 134.77 22.13 134.77 22.13 156.99 50.18 156.99"/><path class="cls-1" d="M49.49,17.92v5.49c0,4.12-.94,7.8-10.38,7.8H22.55V9.68H39.11C47.77,9.68,49.49,13.29,49.49,17.92ZM42,21.52v-2.4c0-2.32-1-3.43-3.26-3.43h-7.3V25h7.3C41,25,42,23.84,42,21.52Z" transform="translate(-0.25 -0.25)"/><path d="M45.89,41.51v3.34c0,2.32-1,3.44-3.26,3.44H31.47V38.16H42.63C44.86,38.16,45.89,39.19,45.89,41.51Z" transform="translate(-0.25 -0.25)"/><path d="M42,19.12v2.4C42,23.84,41,25,38.77,25h-7.3V15.69h7.3C41,15.69,42,16.8,42,19.12Z" transform="translate(-0.25 -0.25)"/></g></g></svg>